<?xml version="1.0" encoding="UTF-8"?>
<svg xmlns="http://www.w3.org/2000/svg" xmlns:xlink="http://www.w3.org/1999/xlink" width="150px" height="48px" viewBox="0 0 151 48" version="1.1">
<g id="surface1">
<path style=" stroke:none;fill-rule:nonzero;fill:rgb(0%,0%,0%);fill-opacity:1;" d="M 14.109375 0.113281 C 13.160156 0.253906 10.261719 1.171875 9.890625 1.4375 C 9.75 1.542969 9.242188 1.824219 8.785156 2.070312 C 6.832031 3.078125 4.421875 5.261719 3.070312 7.238281 C 2.417969 8.152344 0.925781 11.097656 0.925781 11.414062 C 0.925781 11.539062 0.820312 11.996094 0.675781 12.457031 C 0.273438 13.742188 0.0429688 15.292969 0.0429688 16.757812 C 0.0429688 18.152344 0.324219 20.476562 0.570312 20.9375 C 0.996094 21.800781 9.539062 21.816406 13.230469 20.953125 C 17.011719 20.074219 18.332031 19.683594 20.949219 18.734375 C 21.863281 18.398438 23.570312 17.640625 23.957031 17.394531 C 24.097656 17.304688 24.34375 17.179688 24.484375 17.128906 C 24.835938 16.988281 25.839844 16.476562 26.59375 16.035156 C 26.929688 15.824219 27.527344 15.507812 27.914062 15.292969 C 28.300781 15.082031 28.898438 14.675781 29.230469 14.414062 C 29.566406 14.148438 29.9375 13.902344 30.058594 13.867188 C 30.394531 13.761719 33.101562 11.238281 33.101562 11.046875 C 33.101562 10.675781 31.660156 7.90625 31.007812 7.042969 C 28.5625 3.746094 25.453125 1.59375 21.40625 0.398438 C 20.265625 0.0429688 15.589844 -0.132812 14.109375 0.113281 Z M 12.527344 7.273438 C 12.738281 7.449219 12.984375 7.800781 13.109375 8.046875 C 13.25 8.367188 13.496094 8.523438 13.847656 8.558594 C 14.496094 8.628906 15.429688 9.335938 15.78125 10.003906 C 16.027344 10.480469 16.027344 10.535156 15.710938 10.710938 C 15.5 10.816406 13.566406 10.886719 10.648438 10.886719 C 5.230469 10.886719 5.125 10.871094 5.566406 9.792969 C 5.722656 9.441406 6.128906 8.914062 6.496094 8.613281 C 7.058594 8.152344 7.304688 8.066406 8.117188 8.066406 C 8.941406 8.066406 9.136719 7.996094 9.523438 7.554688 C 9.769531 7.289062 10.101562 7.007812 10.242188 6.957031 C 10.734375 6.742188 12.175781 6.957031 12.527344 7.273438 Z M 20.386719 13.160156 C 20.5625 13.335938 20.984375 13.65625 21.320312 13.832031 C 21.6875 14.042969 21.933594 14.308594 21.933594 14.519531 C 21.933594 14.835938 21.757812 14.855469 19.507812 14.90625 C 17.382812 14.941406 17.082031 14.925781 16.976562 14.660156 C 16.835938 14.289062 17.59375 13.585938 18.296875 13.425781 C 18.558594 13.355469 18.929688 13.195312 19.121094 13.074219 C 19.597656 12.738281 20.019531 12.773438 20.386719 13.160156 Z M 20.386719 13.160156 "/>
<path style=" stroke:none;fill-rule:nonzero;fill:rgb(0%,0%,0%);fill-opacity:1;" d="M 41.3125 1.648438 C 40.378906 2.546875 40.257812 2.636719 39.730469 2.511719 C 39.414062 2.460938 38.78125 2.335938 38.289062 2.246094 C 37.8125 2.175781 36.96875 2 36.421875 1.878906 C 34.578125 1.453125 34.4375 2 36.160156 2.898438 C 36.652344 3.148438 37.355469 3.515625 37.707031 3.710938 C 38.65625 4.1875 38.691406 4.574219 37.9375 5.738281 C 36.828125 7.429688 36.6875 7.539062 35.542969 7.539062 C 34.4375 7.539062 34.050781 7.785156 34.753906 8.066406 C 34.980469 8.152344 35.367188 8.472656 35.578125 8.753906 C 35.808594 9.054688 36.125 9.300781 36.28125 9.300781 C 36.457031 9.300781 36.632812 9.441406 36.703125 9.636719 C 36.757812 9.8125 36.96875 10.109375 37.164062 10.289062 C 37.460938 10.570312 37.550781 10.570312 37.691406 10.359375 C 37.847656 10.109375 37.8125 9.847656 37.550781 8.648438 C 37.480469 8.347656 37.707031 8.03125 38.570312 7.183594 C 39.183594 6.601562 39.886719 6.054688 40.117188 6.003906 C 40.609375 5.878906 40.679688 5.949219 41.945312 7.960938 C 43.578125 10.535156 43.753906 9.210938 42.3125 5.191406 C 41.980469 4.277344 41.980469 4.277344 42.875 3.304688 C 43.648438 2.476562 44.160156 1.242188 43.914062 0.820312 C 43.84375 0.730469 43.472656 0.660156 43.070312 0.660156 C 42.402344 0.660156 42.207031 0.765625 41.3125 1.648438 Z M 41.3125 1.648438 "/>
<path style=" stroke:none;fill-rule:nonzero;fill:rgb(0%,0%,0%);fill-opacity:1;" d="M 93.269531 4.910156 C 92.546875 5.121094 91.386719 6.269531 91.035156 7.113281 C 90.421875 8.59375 90.914062 10.570312 92.160156 11.609375 C 92.988281 12.28125 93.953125 12.542969 95.238281 12.402344 C 96.082031 12.316406 96.417969 12.175781 97.050781 11.664062 C 98.085938 10.800781 98.507812 9.933594 98.507812 8.59375 C 98.507812 6.515625 97.050781 4.945312 94.957031 4.804688 C 94.34375 4.769531 93.585938 4.804688 93.269531 4.910156 Z M 93.269531 4.910156 "/>
<path style=" stroke:none;fill-rule:nonzero;fill:rgb(0%,0%,0%);fill-opacity:1;" d="M 120.398438 7.871094 C 119.433594 8.03125 118.535156 8.226562 118.429688 8.296875 C 118.253906 8.402344 118.203125 9.351562 118.203125 11.996094 C 118.203125 13.953125 118.132812 15.648438 118.0625 15.769531 C 117.957031 15.929688 117.691406 15.875 117.023438 15.558594 C 113.628906 13.917969 110.414062 14.0625 106.859375 15.945312 C 105.980469 16.421875 103.890625 18.714844 103.378906 19.773438 C 102.429688 21.710938 102.167969 22.945312 102.148438 25.34375 C 102.148438 27.566406 102.308594 28.375 103.117188 30.191406 C 103.835938 31.832031 105.910156 34.019531 107.5625 34.898438 C 108.867188 35.585938 111.027344 36.097656 112.609375 36.097656 C 113.804688 36.097656 116.144531 35.570312 116.515625 35.199219 C 116.621094 35.113281 116.796875 35.042969 116.9375 35.042969 C 117.078125 35.042969 117.65625 34.722656 118.21875 34.335938 C 118.78125 33.949219 119.292969 33.628906 119.34375 33.628906 C 119.398438 33.628906 119.855469 34.054688 120.363281 34.566406 C 121.804688 36.046875 123.742188 36.46875 125.761719 35.765625 C 126.941406 35.359375 127.414062 34.671875 127.152344 33.753906 C 127.0625 33.4375 126.992188 32.960938 126.992188 32.660156 C 126.976562 32.378906 126.835938 31.746094 126.675781 31.25 C 126.394531 30.441406 126.324219 30.371094 125.796875 30.351562 C 125.464844 30.332031 125.113281 30.226562 125.007812 30.121094 C 124.847656 29.964844 124.777344 26.929688 124.707031 18.945312 C 124.65625 12.914062 124.550781 7.871094 124.480469 7.75 C 124.285156 7.464844 122.632812 7.5 120.398438 7.871094 Z M 115.300781 20.144531 C 116.480469 20.496094 117.710938 21.554688 118.21875 22.664062 C 118.675781 23.652344 118.78125 26.242188 118.394531 27.335938 C 117.832031 28.976562 116.058594 30.40625 114.191406 30.722656 C 112.714844 30.96875 110.5 29.945312 109.621094 28.625 C 108.371094 26.738281 108.195312 24.550781 109.148438 22.628906 C 109.691406 21.535156 110.78125 20.460938 111.519531 20.300781 C 111.765625 20.25 112.117188 20.144531 112.3125 20.054688 C 112.875 19.808594 114.296875 19.859375 115.300781 20.144531 Z M 115.300781 20.144531 "/>
<path style=" stroke:none;fill-rule:nonzero;fill:rgb(0%,0%,0%);fill-opacity:1;" d="M 32.925781 14.535156 C 32.730469 14.996094 31.871094 16.40625 31.027344 17.675781 C 27.703125 22.628906 22.429688 27.179688 15.78125 30.808594 C 13.441406 32.097656 9.136719 34.070312 7.570312 34.582031 C 7.128906 34.722656 7.183594 35.058594 7.78125 35.886719 C 8.082031 36.292969 8.308594 36.664062 8.308594 36.734375 C 8.308594 36.785156 8.660156 37.296875 9.101562 37.863281 C 9.539062 38.425781 9.890625 38.9375 9.890625 38.992188 C 9.890625 39.042969 10.015625 39.238281 10.15625 39.394531 C 10.3125 39.574219 11.140625 40.664062 12 41.828125 C 13.828125 44.316406 14.953125 45.691406 16.167969 47.03125 L 17.066406 48 L 17.628906 47.382812 C 18.453125 46.484375 21.195312 43.046875 23.027344 40.59375 C 24.449219 38.671875 27.824219 33.71875 27.824219 33.542969 C 27.824219 33.507812 28.035156 33.171875 28.28125 32.800781 C 28.527344 32.433594 28.808594 31.972656 28.898438 31.78125 C 28.984375 31.585938 29.230469 31.144531 29.441406 30.808594 C 30.007812 29.894531 32.046875 25.765625 32.046875 25.554688 C 32.046875 25.449219 32.152344 25.152344 32.292969 24.867188 C 32.855469 23.738281 33.398438 22.011719 33.820312 20.003906 C 34.15625 18.433594 34.242188 15.472656 33.996094 14.324219 C 33.820312 13.480469 33.363281 13.566406 32.925781 14.535156 Z M 32.925781 14.535156 "/>
<path style=" stroke:none;fill-rule:nonzero;fill:rgb(0%,0%,0%);fill-opacity:1;" d="M 44.882812 14.765625 C 41.839844 15.59375 39.765625 17.25 38.429688 19.894531 C 37.199219 22.382812 37.214844 25.765625 38.5 28.464844 C 39.21875 30 41.171875 31.902344 42.839844 32.679688 C 44.828125 33.59375 47.078125 33.929688 49.171875 33.648438 C 50.753906 33.417969 51.738281 33.136719 52.652344 32.644531 C 53.445312 32.21875 53.671875 32.308594 53.671875 33.101562 C 53.671875 35.058594 51.773438 36.804688 49.257812 37.15625 C 46.710938 37.527344 43.753906 36.628906 41.875 34.898438 C 41.066406 34.175781 40.589844 34.390625 39.308594 36.0625 C 38.710938 36.875 38.199219 37.6875 38.199219 37.863281 C 38.199219 38.160156 40.1875 39.820312 41.328125 40.472656 C 42.859375 41.335938 45.566406 41.917969 48.0625 41.917969 C 53.550781 41.917969 57.539062 39.609375 59.089844 35.570312 C 59.617188 34.175781 59.792969 31.957031 59.808594 26.492188 C 59.828125 23.492188 59.878906 20.867188 59.933594 20.65625 C 60.039062 20.265625 60.460938 20.054688 61.179688 20.054688 C 61.496094 20.054688 61.621094 19.878906 61.847656 19.136719 C 61.988281 18.644531 62.113281 18.046875 62.113281 17.816406 C 62.113281 17.585938 62.199219 17.039062 62.304688 16.617188 C 62.464844 15.980469 62.445312 15.769531 62.234375 15.453125 C 61.832031 14.890625 60.320312 14.414062 58.949219 14.414062 C 57.574219 14.414062 56.644531 14.800781 55.554688 15.804688 C 55.132812 16.210938 54.675781 16.527344 54.550781 16.527344 C 54.429688 16.527344 53.953125 16.300781 53.515625 16.035156 C 50.945312 14.484375 47.660156 13.988281 44.882812 14.765625 Z M 50.945312 19.527344 C 52.742188 20.335938 53.691406 21.960938 53.691406 24.109375 C 53.691406 26.964844 51.933594 28.90625 49.082031 29.171875 C 47.308594 29.347656 45.25 28.21875 44.566406 26.703125 C 43.773438 24.992188 43.667969 24.109375 44.054688 22.699219 C 44.496094 21.09375 45.285156 20.160156 46.726562 19.507812 C 47.730469 19.050781 49.910156 19.050781 50.945312 19.527344 Z M 50.945312 19.527344 "/>
<path style=" stroke:none;fill-rule:nonzero;fill:rgb(0%,0%,0%);fill-opacity:1;" d="M 64.644531 14.730469 C 63.449219 15.222656 63.289062 15.4375 63.394531 16.351562 C 63.816406 19.738281 63.921875 20.054688 64.730469 20.054688 C 65.734375 20.054688 65.753906 20.144531 65.875 24.480469 C 65.980469 28.695312 66.210938 30.316406 66.878906 31.675781 C 67.386719 32.730469 68.828125 34.230469 69.917969 34.847656 C 71.90625 35.976562 75.054688 36.398438 77.074219 35.816406 C 78.128906 35.515625 80.152344 34.546875 80.433594 34.210938 C 80.734375 33.84375 81.066406 33.949219 81.839844 34.6875 C 83.28125 36.046875 85.425781 36.453125 87.34375 35.710938 C 88.644531 35.21875 88.734375 35.007812 88.503906 33.191406 C 88.222656 31.109375 87.941406 30.371094 87.414062 30.351562 C 86.570312 30.332031 86.410156 30.28125 86.269531 29.964844 C 86.183594 29.804688 86.078125 26.367188 86.023438 22.347656 L 85.9375 15.03125 L 79.78125 15.03125 L 79.695312 21.464844 C 79.605469 27.652344 79.589844 27.9375 79.21875 28.625 C 78.007812 30.914062 74.613281 31.304688 73.136719 29.347656 C 72.46875 28.449219 72.328125 27.460938 72.222656 22.46875 C 72.132812 17.886719 72.117188 17.710938 71.695312 16.882812 C 70.886719 15.277344 69.164062 14.414062 66.808594 14.429688 C 65.875 14.429688 65.101562 14.535156 64.644531 14.730469 Z M 64.644531 14.730469 "/>
<path style=" stroke:none;fill-rule:nonzero;fill:rgb(0%,0%,0%);fill-opacity:1;" d="M 136.839844 14.835938 C 135.152344 15.257812 134.238281 15.699219 132.917969 16.707031 C 132.058594 17.359375 130.6875 18.820312 130.6875 19.101562 C 130.6875 19.171875 130.582031 19.367188 130.441406 19.507812 C 129.964844 20.089844 129.136719 22.488281 128.960938 23.847656 C 128.503906 27.300781 129.839844 31.003906 132.320312 33.191406 C 134.203125 34.863281 137.667969 36.097656 140.425781 36.097656 C 142.5 36.097656 144.980469 35.550781 146.738281 34.6875 C 148.179688 33.984375 150.027344 32.554688 150.027344 32.148438 C 150.027344 31.796875 147.335938 29.222656 146.96875 29.222656 C 146.792969 29.222656 146.351562 29.433594 146 29.699219 C 144.523438 30.84375 143.027344 31.339844 141.164062 31.339844 C 138.773438 31.339844 137.101562 30.582031 135.941406 28.992188 C 135.34375 28.148438 135.097656 27.144531 135.449219 26.914062 C 135.589844 26.824219 139.074219 26.753906 143.203125 26.753906 L 150.730469 26.753906 L 150.816406 26.347656 C 151.222656 24.535156 150.695312 21.535156 149.691406 19.859375 C 149.480469 19.527344 149.253906 19.101562 149.148438 18.910156 C 148.621094 17.832031 146.246094 15.910156 144.664062 15.257812 C 142.253906 14.289062 139.53125 14.148438 136.839844 14.835938 Z M 141.832031 19.207031 C 142.835938 19.457031 144.242188 20.9375 144.628906 22.152344 C 144.824219 22.753906 144.875 23.175781 144.769531 23.28125 C 144.59375 23.457031 135.292969 23.511719 135.132812 23.335938 C 134.90625 23.105469 135.503906 21.5 136.066406 20.8125 C 137.527344 19.03125 139.265625 18.539062 141.832031 19.207031 Z M 141.832031 19.207031 "/>
<path style=" stroke:none;fill-rule:nonzero;fill:rgb(0%,0%,0%);fill-opacity:1;" d="M 91.546875 15.1875 C 91.492188 15.328125 91.476562 19.226562 91.511719 23.882812 L 91.5625 32.308594 L 92.054688 33.207031 C 93.269531 35.515625 96.222656 36.679688 98.71875 35.816406 C 100.125 35.339844 100.496094 34.933594 100.371094 34.070312 C 100.320312 33.683594 100.195312 32.871094 100.109375 32.253906 C 99.898438 30.863281 99.527344 30.246094 98.984375 30.371094 C 98.773438 30.421875 98.4375 30.351562 98.246094 30.210938 C 97.910156 29.964844 97.894531 29.699219 97.804688 22.488281 L 97.71875 15.03125 L 94.675781 14.976562 C 92.179688 14.941406 91.632812 14.976562 91.546875 15.1875 Z M 91.546875 15.1875 "/>
</g>
</svg>
